<?xml version="1.0" encoding="utf-8"?>
<!-- Generator: Adobe Illustrator 13.0.0, SVG Export Plug-In . SVG Version: 6.00 Build 14948)  -->
<!DOCTYPE svg PUBLIC "-//W3C//DTD SVG 1.1//EN" "http://www.w3.org/Graphics/SVG/1.1/DTD/svg11.dtd">
<svg version="1.1" id="Layer_1" xmlns="http://www.w3.org/2000/svg" xmlns:xlink="http://www.w3.org/1999/xlink" x="0px" y="0px"
	 width="104px" height="12px" viewBox="0 0 104 12" enable-background="new 0 0 104 12" xml:space="preserve">
<g>
	<g>
		<path fill="#FFFFFF" d="M23.546,0.684c0,0.115-0.006,0.218-0.018,0.304c-0.014,0.087-0.032,0.156-0.06,0.208
			c-0.027,0.051-0.062,0.09-0.099,0.115c-0.041,0.024-0.084,0.036-0.133,0.036h-3.303v10.356c0,0.051-0.013,0.093-0.037,0.13
			c-0.023,0.037-0.066,0.066-0.127,0.087c-0.061,0.021-0.141,0.041-0.24,0.057C19.431,11.99,19.305,12,19.154,12
			c-0.146,0-0.27-0.01-0.372-0.023c-0.104-0.016-0.185-0.035-0.246-0.057c-0.061-0.021-0.102-0.05-0.126-0.087
			s-0.036-0.079-0.036-0.13V1.347h-3.305c-0.048,0-0.091-0.012-0.131-0.036c-0.039-0.025-0.07-0.064-0.095-0.115
			c-0.024-0.052-0.044-0.121-0.06-0.208c-0.015-0.085-0.021-0.188-0.021-0.304c0-0.118,0.007-0.221,0.021-0.309
			c0.016-0.09,0.035-0.163,0.06-0.217c0.024-0.054,0.056-0.095,0.095-0.121C14.979,0.013,15.021,0,15.069,0h8.168
			c0.049,0,0.092,0.013,0.133,0.037c0.037,0.025,0.071,0.066,0.099,0.121c0.027,0.055,0.046,0.127,0.06,0.217
			C23.54,0.463,23.546,0.566,23.546,0.684"/>
		<path fill="#FFFFFF" d="M33.565,11.703c0,0.051-0.009,0.093-0.029,0.13c-0.018,0.037-0.056,0.068-0.117,0.091
			c-0.061,0.026-0.145,0.044-0.254,0.057C33.057,11.993,32.911,12,32.729,12c-0.157,0-0.286-0.007-0.386-0.02
			s-0.179-0.033-0.24-0.061c-0.061-0.026-0.108-0.064-0.141-0.115c-0.034-0.048-0.063-0.109-0.087-0.186l-1.079-2.814
			c-0.127-0.319-0.26-0.614-0.395-0.881c-0.137-0.268-0.298-0.497-0.486-0.692c-0.188-0.193-0.408-0.345-0.662-0.451
			C29,6.672,28.695,6.618,28.339,6.618h-1.045v5.085c0,0.051-0.013,0.093-0.041,0.13c-0.027,0.037-0.068,0.066-0.127,0.087
			c-0.059,0.021-0.136,0.041-0.235,0.057C26.79,11.99,26.665,12,26.514,12s-0.276-0.01-0.376-0.023
			c-0.1-0.016-0.181-0.035-0.241-0.057c-0.061-0.021-0.102-0.05-0.127-0.087c-0.023-0.037-0.035-0.079-0.035-0.13V0.647
			c0-0.241,0.061-0.408,0.186-0.504C26.044,0.048,26.175,0,26.314,0h2.495c0.296,0,0.543,0.009,0.739,0.023
			c0.196,0.014,0.374,0.033,0.531,0.052c0.453,0.079,0.854,0.206,1.202,0.377s0.64,0.39,0.876,0.656
			c0.235,0.264,0.413,0.568,0.53,0.909c0.118,0.34,0.177,0.718,0.177,1.129c0,0.401-0.054,0.759-0.159,1.076
			c-0.105,0.316-0.258,0.596-0.457,0.839c-0.2,0.244-0.438,0.453-0.717,0.633s-0.591,0.329-0.937,0.452
			c0.196,0.085,0.37,0.194,0.528,0.326c0.156,0.134,0.303,0.293,0.439,0.476c0.136,0.186,0.264,0.398,0.387,0.64
			c0.119,0.237,0.241,0.509,0.362,0.812l1.052,2.629c0.085,0.223,0.139,0.379,0.164,0.467
			C33.552,11.586,33.565,11.654,33.565,11.703 M31.215,3.313c0-0.467-0.104-0.863-0.309-1.186c-0.206-0.322-0.552-0.555-1.034-0.696
			c-0.152-0.043-0.323-0.074-0.514-0.093c-0.19-0.019-0.439-0.027-0.748-0.027h-1.316v4.025h1.524c0.412,0,0.766-0.052,1.066-0.152
			c0.3-0.104,0.549-0.244,0.748-0.426c0.2-0.182,0.347-0.395,0.441-0.641C31.167,3.871,31.215,3.603,31.215,3.313"/>
		<path fill="#FFFFFF" d="M44.022,7.469c0,0.715-0.101,1.353-0.307,1.913c-0.205,0.562-0.498,1.034-0.881,1.422
			c-0.381,0.388-0.846,0.681-1.394,0.88c-0.546,0.202-1.169,0.302-1.865,0.302c-0.639,0-1.218-0.095-1.743-0.282
			c-0.523-0.188-0.973-0.465-1.349-0.832c-0.375-0.366-0.663-0.826-0.865-1.375c-0.203-0.552-0.304-1.188-0.304-1.907V0.291
			c0-0.049,0.011-0.09,0.035-0.128c0.023-0.036,0.065-0.064,0.124-0.085c0.061-0.021,0.137-0.04,0.233-0.054
			C35.803,0.008,35.928,0,36.083,0c0.143,0,0.265,0.008,0.366,0.023c0.1,0.014,0.18,0.033,0.236,0.054
			c0.056,0.021,0.097,0.049,0.121,0.085c0.024,0.038,0.036,0.079,0.036,0.128v7.104c0,0.547,0.064,1.021,0.195,1.427
			c0.132,0.406,0.321,0.744,0.567,1.013c0.246,0.271,0.545,0.475,0.894,0.609c0.348,0.136,0.739,0.205,1.175,0.205
			c0.446,0,0.844-0.065,1.191-0.201c0.35-0.132,0.645-0.332,0.886-0.599c0.241-0.268,0.425-0.598,0.553-0.992
			c0.129-0.392,0.192-0.852,0.192-1.379V0.291c0-0.049,0.013-0.09,0.036-0.128c0.024-0.036,0.065-0.064,0.124-0.085
			c0.061-0.021,0.14-0.04,0.237-0.054C42.992,0.008,43.116,0,43.265,0c0.144,0,0.264,0.008,0.361,0.023
			c0.099,0.014,0.176,0.033,0.232,0.054c0.058,0.021,0.099,0.049,0.126,0.085c0.026,0.038,0.038,0.079,0.038,0.128V7.469z"/>
		<path fill="#FFFFFF" d="M52.827,8.554c0,0.548-0.101,1.034-0.298,1.46c-0.198,0.427-0.472,0.787-0.822,1.084
			c-0.352,0.298-0.765,0.521-1.24,0.672c-0.476,0.149-0.985,0.226-1.535,0.226c-0.385,0-0.739-0.033-1.066-0.101
			c-0.328-0.065-0.62-0.146-0.877-0.242s-0.473-0.195-0.646-0.297c-0.174-0.103-0.294-0.188-0.361-0.262
			c-0.069-0.071-0.12-0.164-0.151-0.274c-0.033-0.111-0.049-0.261-0.049-0.446c0-0.132,0.006-0.241,0.018-0.328
			c0.011-0.087,0.029-0.158,0.053-0.212s0.054-0.092,0.088-0.112c0.036-0.021,0.078-0.031,0.125-0.031
			c0.082,0,0.199,0.052,0.35,0.152c0.15,0.103,0.344,0.215,0.58,0.333c0.235,0.121,0.521,0.233,0.854,0.337
			c0.333,0.105,0.719,0.158,1.155,0.158c0.33,0,0.634-0.043,0.908-0.135c0.274-0.091,0.51-0.218,0.709-0.382
			c0.195-0.166,0.349-0.368,0.455-0.608c0.104-0.239,0.158-0.513,0.158-0.818c0-0.332-0.074-0.614-0.22-0.848
			c-0.148-0.234-0.342-0.439-0.585-0.617C50.185,7.086,49.91,6.923,49.6,6.776c-0.309-0.147-0.627-0.298-0.951-0.45
			c-0.325-0.152-0.642-0.322-0.947-0.51c-0.308-0.186-0.581-0.404-0.823-0.656s-0.438-0.549-0.59-0.887
			c-0.149-0.338-0.225-0.746-0.225-1.219c0-0.487,0.087-0.92,0.262-1.301c0.173-0.382,0.415-0.702,0.726-0.959
			c0.31-0.257,0.679-0.456,1.106-0.59C48.584,0.067,49.047,0,49.542,0c0.254,0,0.509,0.023,0.767,0.067
			c0.256,0.045,0.498,0.106,0.726,0.181c0.228,0.075,0.429,0.16,0.606,0.251c0.176,0.093,0.294,0.169,0.349,0.227
			c0.057,0.057,0.094,0.101,0.11,0.134c0.02,0.033,0.034,0.076,0.045,0.126c0.012,0.051,0.021,0.112,0.026,0.186
			c0.006,0.072,0.011,0.164,0.011,0.277c0,0.109-0.006,0.205-0.015,0.289c-0.008,0.085-0.022,0.156-0.04,0.213
			c-0.018,0.056-0.044,0.099-0.075,0.125c-0.032,0.026-0.069,0.041-0.11,0.041c-0.066,0-0.166-0.042-0.306-0.127
			c-0.139-0.084-0.308-0.177-0.509-0.284c-0.201-0.105-0.439-0.2-0.712-0.288c-0.275-0.086-0.584-0.131-0.927-0.131
			c-0.317,0-0.596,0.045-0.831,0.131c-0.236,0.088-0.432,0.204-0.584,0.346c-0.155,0.145-0.269,0.316-0.346,0.513
			c-0.076,0.199-0.115,0.41-0.115,0.632c0,0.324,0.074,0.602,0.222,0.837s0.344,0.442,0.588,0.621
			c0.246,0.18,0.524,0.346,0.837,0.495c0.313,0.15,0.632,0.302,0.956,0.457c0.325,0.152,0.643,0.32,0.956,0.503
			c0.313,0.185,0.591,0.399,0.838,0.648c0.244,0.25,0.441,0.543,0.591,0.884C52.751,7.692,52.827,8.092,52.827,8.554"/>
		<path fill="#FFFFFF" d="M62.521,0.682c0,0.117-0.006,0.218-0.018,0.303c-0.013,0.086-0.031,0.157-0.059,0.208
			c-0.026,0.052-0.062,0.09-0.101,0.115c-0.038,0.025-0.083,0.037-0.131,0.037h-3.297v10.339c0,0.049-0.012,0.092-0.037,0.128
			c-0.023,0.037-0.066,0.067-0.126,0.089c-0.061,0.021-0.14,0.039-0.24,0.054c-0.101,0.016-0.226,0.024-0.376,0.024
			c-0.146,0-0.27-0.009-0.371-0.024c-0.104-0.015-0.185-0.033-0.244-0.054c-0.062-0.021-0.103-0.052-0.128-0.089
			c-0.023-0.036-0.036-0.079-0.036-0.128V1.345h-3.297c-0.048,0-0.092-0.011-0.132-0.037c-0.039-0.024-0.07-0.063-0.095-0.115
			c-0.023-0.052-0.044-0.122-0.06-0.208C53.76,0.9,53.752,0.799,53.752,0.682c0-0.116,0.008-0.221,0.022-0.308
			c0.016-0.09,0.036-0.163,0.06-0.217c0.024-0.055,0.056-0.096,0.095-0.121C53.969,0.013,54.013,0,54.061,0h8.152
			c0.048,0,0.093,0.013,0.131,0.037c0.039,0.025,0.074,0.066,0.101,0.121c0.027,0.054,0.046,0.127,0.059,0.217
			C62.515,0.461,62.521,0.566,62.521,0.682"/>
		<path fill="#929497" d="M71.59,3.498c0,0.597-0.097,1.136-0.291,1.616c-0.194,0.48-0.47,0.891-0.83,1.227
			c-0.359,0.34-0.802,0.602-1.325,0.786s-1.146,0.276-1.874,0.276h-1.333v4.301c0,0.051-0.015,0.093-0.041,0.13
			c-0.027,0.037-0.069,0.066-0.127,0.087c-0.057,0.021-0.137,0.041-0.237,0.057C65.433,11.99,65.308,12,65.156,12
			s-0.277-0.01-0.376-0.023c-0.102-0.016-0.182-0.035-0.242-0.057c-0.061-0.021-0.103-0.05-0.126-0.087
			c-0.025-0.037-0.036-0.079-0.036-0.13V0.684c0-0.246,0.063-0.421,0.19-0.526C64.693,0.052,64.834,0,64.993,0h2.513
			c0.255,0,0.497,0.01,0.731,0.033c0.232,0.021,0.508,0.067,0.824,0.138c0.318,0.07,0.643,0.203,0.973,0.397
			C70.363,0.761,70.643,1,70.872,1.283c0.23,0.283,0.407,0.61,0.531,0.983S71.59,3.048,71.59,3.498 M69.947,3.627
			c0-0.486-0.09-0.892-0.269-1.217c-0.178-0.326-0.398-0.571-0.662-0.73c-0.264-0.16-0.535-0.262-0.815-0.305
			c-0.282-0.042-0.557-0.064-0.822-0.064h-1.442v4.79h1.406c0.472,0,0.863-0.062,1.175-0.185c0.312-0.124,0.573-0.293,0.784-0.512
			c0.212-0.219,0.373-0.48,0.482-0.784C69.893,4.316,69.947,3.984,69.947,3.627"/>
		<path fill="#929497" d="M75.282,11.695c0,0.049-0.012,0.093-0.035,0.128c-0.024,0.036-0.066,0.065-0.127,0.087
			s-0.14,0.04-0.239,0.056c-0.098,0.015-0.225,0.022-0.374,0.022c-0.145,0-0.268-0.008-0.37-0.022
			c-0.103-0.016-0.185-0.034-0.243-0.056c-0.061-0.021-0.103-0.051-0.127-0.087c-0.023-0.035-0.035-0.079-0.035-0.128V0.294
			c0-0.05,0.014-0.093,0.039-0.129c0.027-0.036,0.072-0.066,0.137-0.086c0.063-0.021,0.144-0.042,0.242-0.056
			C74.25,0.009,74.368,0,74.507,0c0.149,0,0.276,0.009,0.374,0.023c0.1,0.014,0.179,0.034,0.239,0.056
			c0.061,0.02,0.103,0.05,0.127,0.086c0.023,0.036,0.035,0.079,0.035,0.129V11.695z"/>
		<path fill="#929497" d="M84.255,11.309c0,0.121-0.005,0.225-0.017,0.308c-0.013,0.083-0.032,0.155-0.061,0.213
			c-0.026,0.058-0.059,0.102-0.099,0.128C84.041,11.985,83.994,12,83.938,12h-5.19c-0.139,0-0.269-0.048-0.394-0.145
			c-0.123-0.095-0.186-0.263-0.186-0.503V0.295c0-0.049,0.011-0.092,0.035-0.129C78.229,0.13,78.271,0.1,78.33,0.08
			c0.062-0.022,0.143-0.041,0.246-0.056C78.678,0.009,78.802,0,78.948,0c0.15,0,0.275,0.009,0.376,0.023
			c0.101,0.015,0.18,0.034,0.24,0.056c0.061,0.021,0.103,0.05,0.127,0.087s0.037,0.08,0.037,0.129v10.329h4.209
			c0.057,0,0.104,0.014,0.142,0.042c0.04,0.027,0.072,0.067,0.099,0.12c0.028,0.052,0.048,0.121,0.061,0.208
			C84.25,11.079,84.255,11.184,84.255,11.309"/>
		<path fill="#929497" d="M94.887,5.852c0,0.938-0.109,1.788-0.327,2.543s-0.544,1.396-0.977,1.928
			c-0.433,0.529-0.977,0.937-1.63,1.222s-1.417,0.427-2.288,0.427c-0.86,0-1.604-0.13-2.231-0.39
			c-0.626-0.262-1.146-0.64-1.556-1.139c-0.408-0.496-0.714-1.113-0.914-1.851s-0.302-1.585-0.302-2.543
			c0-0.916,0.11-1.749,0.328-2.5c0.218-0.748,0.545-1.385,0.981-1.91c0.436-0.525,0.98-0.928,1.635-1.212
			C88.261,0.143,89.022,0,89.894,0c0.843,0,1.576,0.129,2.201,0.386c0.623,0.258,1.144,0.634,1.56,1.127
			c0.414,0.495,0.723,1.106,0.927,1.834C94.784,4.075,94.887,4.91,94.887,5.852 M93.279,5.959c0-0.659-0.059-1.271-0.173-1.839
			c-0.115-0.565-0.307-1.056-0.574-1.473c-0.268-0.416-0.625-0.742-1.072-0.976c-0.446-0.232-1-0.35-1.659-0.35
			c-0.658,0-1.212,0.126-1.659,0.377c-0.447,0.252-0.81,0.586-1.089,1.006c-0.28,0.42-0.479,0.91-0.601,1.469
			c-0.121,0.562-0.181,1.15-0.181,1.767c0,0.683,0.056,1.312,0.168,1.888c0.111,0.573,0.3,1.069,0.563,1.485
			c0.266,0.418,0.621,0.742,1.064,0.972c0.443,0.23,1.001,0.346,1.674,0.346c0.663,0,1.223-0.125,1.676-0.378
			c0.452-0.252,0.817-0.59,1.094-1.02c0.276-0.429,0.474-0.925,0.591-1.486C93.219,7.185,93.279,6.588,93.279,5.959"/>
		<path fill="#929497" d="M104,0.684c0,0.115-0.006,0.218-0.019,0.304c-0.012,0.087-0.032,0.156-0.06,0.208
			c-0.027,0.051-0.06,0.09-0.099,0.115c-0.04,0.024-0.083,0.036-0.131,0.036h-3.303v10.356c0,0.051-0.013,0.093-0.039,0.13
			c-0.022,0.037-0.064,0.066-0.125,0.087c-0.062,0.021-0.141,0.041-0.242,0.057C99.886,11.99,99.76,12,99.607,12
			c-0.144,0-0.27-0.01-0.371-0.023c-0.103-0.016-0.186-0.035-0.245-0.057c-0.061-0.021-0.103-0.05-0.127-0.087
			c-0.023-0.037-0.036-0.079-0.036-0.13V1.347h-3.305c-0.047,0-0.09-0.012-0.13-0.036c-0.039-0.025-0.072-0.064-0.097-0.115
			c-0.022-0.052-0.043-0.121-0.059-0.208c-0.015-0.085-0.022-0.188-0.022-0.304c0-0.118,0.008-0.221,0.022-0.309
			c0.016-0.09,0.036-0.163,0.059-0.217c0.024-0.054,0.058-0.095,0.097-0.121C95.434,0.013,95.477,0,95.523,0h8.169
			c0.048,0,0.091,0.013,0.131,0.037c0.039,0.025,0.071,0.066,0.099,0.121c0.027,0.055,0.048,0.127,0.06,0.217
			C103.994,0.463,104,0.566,104,0.684"/>
		<path fill="#F9A21E" d="M0.011,0.207v5.073c0,0,3.766,1.828,5.682,5.097c0,0,0.846-7.219,5.593-10.169H0.011z"/>
	</g>
	<g>
		<defs>
			<path id="SVGID_1_" d="M0,11.704h5.073c0,0-1.933-2.093-5.073-2.245V11.704z M6.435,11.699h4.851V5.146
				C8.54,5.902,6.435,11.699,6.435,11.699"/>
		</defs>
		<clipPath id="SVGID_2_">
			<use xlink:href="#SVGID_1_"  overflow="visible"/>
		</clipPath>
		
			<linearGradient id="SVGID_3_" gradientUnits="userSpaceOnUse" x1="-301.29" y1="71.0654" x2="-301.0928" y2="71.0654" gradientTransform="matrix(0 -33.209 -33.209 0 2365.6504 -9993.8301)">
			<stop  offset="0" style="stop-color:#E37A26"/>
			<stop  offset="0.4725" style="stop-color:#F9A21E"/>
			<stop  offset="1" style="stop-color:#F9A21E"/>
		</linearGradient>
		<rect y="5.146" clip-path="url(#SVGID_2_)" fill="url(#SVGID_3_)" width="11.285" height="6.558"/>
	</g>
	<g>
		<g opacity="0.5">
			<g>
				<defs>
					<rect id="SVGID_4_" x="0.075" y="0.283" width="11.093" height="4.401"/>
				</defs>
				<clipPath id="SVGID_5_">
					<use xlink:href="#SVGID_4_"  overflow="visible"/>
				</clipPath>
				<g clip-path="url(#SVGID_5_)">
					<defs>
						<path id="SVGID_6_" d="M0.075,0.283h11.093c0,0-1.822,0.653-3.783,4.33c0,0-4.29,0.443-7.299-0.889L0.075,0.283z"/>
					</defs>
					<clipPath id="SVGID_7_">
						<use xlink:href="#SVGID_6_"  overflow="visible"/>
					</clipPath>
					
						<linearGradient id="SVGID_8_" gradientUnits="userSpaceOnUse" x1="-302.2227" y1="68.1543" x2="-302.025" y2="68.1543" gradientTransform="matrix(0 -22.2871 -22.2871 0 1524.5723 -6730.9863)">
						<stop  offset="0" style="stop-color:#FFFFFF"/>
						<stop  offset="1" style="stop-color:#F9A21E"/>
					</linearGradient>
					<rect x="0.075" y="0.283" clip-path="url(#SVGID_7_)" fill="url(#SVGID_8_)" width="11.093" height="4.773"/>
				</g>
			</g>
		</g>
	</g>
	<g>
		<defs>
			<path id="SVGID_9_" d="M11.271,0.216c0.004-0.002,0.007-0.005,0.01-0.007L11.271,0.216z M11.281,0.209l0.004-0.003
				C11.284,0.208,11.283,0.208,11.281,0.209"/>
		</defs>
		<clipPath id="SVGID_10_">
			<use xlink:href="#SVGID_9_"  overflow="visible"/>
		</clipPath>
		
			<linearGradient id="SVGID_11_" gradientUnits="userSpaceOnUse" x1="176.041" y1="3661.9375" x2="176.2396" y2="3661.9375" gradientTransform="matrix(0 0.0484 0.0484 0 -166.1303 -8.3222)">
			<stop  offset="0" style="stop-color:#484848"/>
			<stop  offset="1" style="stop-color:#000000"/>
		</linearGradient>
		<rect x="11.271" y="0.207" clip-path="url(#SVGID_10_)" fill="url(#SVGID_11_)" width="0.014" height="0.01"/>
	</g>
	<g>
		<defs>
			<path id="SVGID_12_" d="M11.271,0.216c-4.734,2.956-5.579,10.16-5.579,10.16C3.776,7.107,0.012,5.279,0.012,5.279v4.182
				c3.133,0.157,5.062,2.243,5.062,2.243l1.361-0.005c0,0,2.105-5.797,4.851-6.553v-4.93H11.271z"/>
		</defs>
		<clipPath id="SVGID_13_">
			<use xlink:href="#SVGID_12_"  overflow="visible"/>
		</clipPath>
		
			<linearGradient id="SVGID_14_" gradientUnits="userSpaceOnUse" x1="-301.6025" y1="80.4141" x2="-301.4049" y2="80.4141" gradientTransform="matrix(0 57.7165 57.7165 0 -4635.5781 17407.7109)">
			<stop  offset="0" style="stop-color:#484848"/>
			<stop  offset="1" style="stop-color:#000000"/>
		</linearGradient>
		<rect x="0.012" y="0.216" clip-path="url(#SVGID_13_)" fill="url(#SVGID_14_)" width="11.273" height="11.488"/>
	</g>
</g>
</svg>
